HIERARCHY
ROOT Hips
{
    OFFSET 0.000000 0.000000 0.000000
    CHANNELS 6 Xposition Yposition Zposition Zrotation Xrotation Yrotation
    JOINT Spine
    {
        OFFSET -0.000000 8.349382 0.000000
        CHANNELS 3 Zrotation Xrotation Yrotation
        JOINT Spine1
        {
            OFFSET -0.000000 23.269058 0.000000
            CHANNELS 3 Zrotation Xrotation Yrotation
            JOINT Neck
            {
                OFFSET -0.000000 23.173496 2.106681
                CHANNELS 3 Zrotation Xrotation Yrotation
                JOINT Head
                {
                    OFFSET -0.000000 14.255042 -2.036435
                    CHANNELS 3 Zrotation Xrotation Yrotation
                    End Site
                    {
                        OFFSET -0.000000 25.455433 0.000000
                    }
                }
            }
            JOINT LeftShoulder
            {
                OFFSET 3.917082 21.531742 0.000256
                CHANNELS 3 Zrotation Xrotation Yrotation
                JOINT LeftArm
                {
                    OFFSET 10.728225 0.000000 0.000000
                    CHANNELS 3 Zrotation Xrotation Yrotation
                    JOINT LeftForeArm
                    {
                        OFFSET 30.046112 0.000000 0.000000
                        CHANNELS 3 Zrotation Xrotation Yrotation
                        JOINT LeftHand
                        {
                            OFFSET 29.023712 0.000000 0.000000
                            CHANNELS 3 Zrotation Xrotation Yrotation
                            End Site
                            {
                                OFFSET 15.273261 0.000000 0.000000
                            }
                        }
                    }
                }
            }
            JOINT RightShoulder
            {
                OFFSET -3.920664 21.531742 0.000256
                CHANNELS 3 Zrotation Xrotation Yrotation
                JOINT RightArm
                {
                    OFFSET -10.728225 0.000000 0.000000
                    CHANNELS 3 Zrotation Xrotation Yrotation
                    JOINT RightForeArm
                    {
                        OFFSET -30.046112 0.000000 0.000000
                        CHANNELS 3 Zrotation Xrotation Yrotation
                        JOINT RightHand
                        {
                            OFFSET -29.023712 0.000000 0.000000
                            CHANNELS 3 Zrotation Xrotation Yrotation
                            End Site
                            {
                                OFFSET -15.273261 0.000000 0.000000
                            }
                        }
                    }
                }
            }
        }
    }
    JOINT LeftUpLeg
    {
        OFFSET 10.182174 0.000000 0.000000
        CHANNELS 3 Zrotation Xrotation Yrotation
        JOINT LeftLeg
        {
            OFFSET -0.000000 -49.689274 0.000000
            CHANNELS 3 Zrotation Xrotation Yrotation
            JOINT LeftFoot
            {
                OFFSET -0.000000 -39.155319 0.000000
                CHANNELS 3 Zrotation Xrotation Yrotation
                JOINT LeftToeBase
                {
                    OFFSET -0.000000 -6.618412 15.273261
                    CHANNELS 3 Zrotation Xrotation Yrotation
                    End Site
                    {
                        OFFSET -0.000000 0.000000 4.072869
                    }
                }
            }
        }
    }
    JOINT RightUpLeg
    {
        OFFSET -10.182174 0.000000 0.000000
        CHANNELS 3 Zrotation Xrotation Yrotation
        JOINT RightLeg
        {
            OFFSET -0.000000 -49.689274 0.000000
            CHANNELS 3 Zrotation Xrotation Yrotation
            JOINT RightFoot
            {
                OFFSET -0.000000 -39.155319 0.000000
                CHANNELS 3 Zrotation Xrotation Yrotation
                JOINT RightToeBase
                {
                    OFFSET -0.000000 -6.618412 15.273261
                    CHANNELS 3 Zrotation Xrotation Yrotation
                    End Site
                    {
                        OFFSET -0.000000 0.000000 4.072869
                    }
                }
            }
        }
    }
}
MOTION
Frames:    7
Frame Time:    0.008333
30.829590    97.817329    10.708856    -0.002343    1.632014    99.006065    -1.058455    -0.484833    0.378863    1.180105    3.205975    0.350275    1.984804    11.139482    0.022744    -0.286548    -6.822953    -0.129056    20.454138    -1.806379    -20.700354    -5.144775    -2.441367    12.498278    12.428475    -11.987881    -4.460795    -5.746239    -11.620023    2.194523    -16.412411    4.263256    -22.809202    12.546674    -5.415526    -0.409046    -8.902585    -6.957368    6.171710    -4.779464    -6.426594    -1.282282    1.699379    4.819545    -4.503810    -4.772981    -0.296001    -4.801579    0.997302    -3.416247    25.436487    0.000000    0.000000    0.000000    -5.774405    2.102811    -2.366416    4.576313    6.523119    0.913216    0.274502    -6.832416    -13.850666    0.000000    0.000000    0.000000    
30.803314    97.811317    10.745507    -0.072966    1.606300    99.033340    -1.058645    -0.554133    0.380005    1.195888    3.276156    0.350979    1.983664    11.010023    0.008410    -0.243136    -6.757923    -0.137525    20.449287    -1.837473    -20.685669    -5.297729    -2.503712    12.397055    12.432526    -12.213944    -4.432315    -5.946733    -11.849822    2.131237    -16.351755    4.246308    -22.811165    12.609505    -5.555132    -0.392021    -8.682808    -6.811481    6.227472    -5.032660    -6.286796    -1.249093    1.731420    4.702669    -4.517143    -4.770301    -0.252568    -4.856939    1.017228    -3.434855    25.485949    0.000000    0.000000    0.000000    -5.738750    2.037822    -2.357551    4.574686    6.473571    0.846305    0.253929    -6.819136    -13.805572    0.000000    0.000000    0.000000    
30.816299    97.799629    10.779126    -0.019882    1.584339    99.034225    -1.066562    -0.535465    0.404400    1.259752    3.350608    0.372565    1.860093    10.899125    -0.033245    -0.033903    -6.672871    -0.134576    20.402260    -1.849346    -20.740641    -5.349057    -2.728862    12.362662    12.258658    -12.267017    -4.488960    -5.883291    -11.900151    2.084125    -16.306728    4.243480    -22.828613    12.685348    -5.649333    -0.365229    -8.496247    -6.716369    6.227659    -4.959892    -6.209403    -1.088959    1.786298    4.768535    -4.538944    -4.765655    -0.272980    -4.892211    1.025336    -3.470480    25.520618    0.000000    0.000000    0.000000    -5.689476    2.129509    -2.271758    4.584655    6.394536    0.778235    0.218352    -6.819702    -13.797926    0.000000    0.000000    0.000000    
30.813221    97.793549    10.807192    -0.027806    1.580345    99.026703    -1.110754    -0.555600    0.433412    1.345559    3.422043    0.398701    1.893889    10.802342    -0.033144    -0.127153    -6.669871    -0.156324    20.360085    -1.853126    -20.765417    -5.507124    -2.814397    12.304678    12.238195    -12.379453    -4.516054    -5.759406    -12.012819    2.172555    -16.280666    4.264134    -22.854036    12.782078    -5.779970    -0.328404    -8.321261    -6.637714    6.245078    -5.265407    -6.135983    -1.089947    1.800030    4.761284    -4.529973    -4.762205    -0.285490    -4.893508    1.058100    -3.468375    25.532713    0.000000    0.000000    0.000000    -5.672933    2.134986    -2.206415    4.587447    6.352841    0.672051    0.205268    -6.816662    -13.725171    0.000000    0.000000    0.000000    
30.811586    97.787453    10.839513    -0.026914    1.567681    99.036949    -1.154681    -0.566741    0.459495    1.436908    3.489316    0.421498    1.883518    10.679644    -0.059263    -0.142604    -6.624227    -0.188085    20.317356    -1.887549    -20.818119    -5.590521    -3.010061    12.287766    12.172647    -12.329604    -4.568261    -6.091764    -11.966501    2.178386    -16.207672    4.316510    -22.875561    12.841010    -5.927817    -0.313062    -8.198580    -6.480116    6.188974    -4.932867    -6.004366    -0.803551    1.833243    4.760593    -4.549230    -4.754046    -0.298618    -4.923162    0.985054    -3.536221    25.551596    0.000000    0.000000    0.000000    -5.641313    2.156022    -2.128815    4.600963    6.301640    0.652519    0.173084    -6.825169    -13.793728    0.000000    0.000000    0.000000    
30.807405    97.783791    10.870464    -0.033468    1.556646    99.035149    -1.167436    -0.574107    0.478016    1.467349    3.540928    0.438641    1.947238    10.846355    0.031270    -0.275848    -7.071306    -0.122344    20.309238    -1.887672    -20.824280    -5.723900    -3.139843    12.222047    12.186957    -12.346632    -4.528586    -6.038080    -11.984743    2.151573    -16.152822    4.310910    -22.891449    12.916838    -5.997299    -0.293248    -7.987898    -6.478622    6.249403    -5.608989    -5.995599    -1.002988    1.862250    4.758773    -4.568916    -4.754784    -0.322613    -4.926734    1.045621    -3.473269    25.582636    0.000000    0.000000    0.000000    -5.615740    2.159828    -2.038096    4.619532    6.264868    0.727007    0.109002    -6.815118    -13.949760    0.000000    0.000000    0.000000    
30.810583    97.778610    10.895025    -0.063787    1.544453    99.025040    -1.192511    -0.635878    0.504008    1.530246    3.626912    0.462197    1.888107    10.747670    0.017404    -0.236139    -7.086589    -0.127284    20.271706    -1.916509    -20.841080    -5.772038    -3.335590    12.199069    12.053162    -12.265212    -4.567000    -6.012111    -11.901786    2.108647    -16.120926    4.321630    -22.926048    12.983894    -6.116387    -0.243311    -7.844752    -6.287702    6.191136    -5.521374    -5.817395    -0.996177    1.878186    4.743873    -4.564949    -4.742065    -0.354321    -4.929237    0.979185    -3.537936    25.588005    0.000000    0.000000    0.000000    -5.594897    2.139545    -1.972322    4.624468    6.238461    0.720794    0.078975    -6.819068    -13.990857    0.000000    0.000000    0.000000    
